<?xml version="1.0" encoding="UTF-8" standalone="no"?>
<svg xmlns="http://www.w3.org/2000/svg" height="70" id="uuid-2f942380-5725-48b6-be84-3684905b3260" viewBox="0 0 69.99 69.99" width="70">
  <defs>
    <style>.uuid-aca8bbc4-c7c8-4a14-9aa5-86ab1ed166cb{fill:#ff6e00;}</style>
  </defs>
  <path class="uuid-aca8bbc4-c7c8-4a14-9aa5-86ab1ed166cb" d="m35,1C16.22,1,1,16.22,1,35s15.22,34,34,34,34-15.22,34-34S53.78,1,35,1Zm0,65c-17.12,0-31-13.88-31-31S17.88,4,35,4s31,13.88,31,31-13.88,31-31,31Z"/>
  <path class="uuid-aca8bbc4-c7c8-4a14-9aa5-86ab1ed166cb" d="m37.19,49.87c1.51,0,2.78,1.14,2.97,2.64.2,1.64-.97,3.13-2.62,3.34-.12.01-.24.02-.36.02-1.51,0-2.79-1.14-2.98-2.64-.2-1.64.97-3.13,2.62-3.34.12-.02.25-.02.37-.02m0-1c-.16,0-.33,0-.49.03-2.19.27-3.76,2.26-3.49,4.45.25,2.03,1.97,3.52,3.97,3.52.16,0,.32-.01.48-.03,2.19-.27,3.76-2.26,3.49-4.45-.25-2.03-1.97-3.52-3.96-3.52h0Z"/>
  <path class="uuid-aca8bbc4-c7c8-4a14-9aa5-86ab1ed166cb" d="m28.64,48.84h0c.36,0,.72.07,1.06.19l.1.04c1.48.62,2.22,2.32,1.65,3.83-.44,1.16-1.57,1.95-2.81,1.95-.32,0-.64-.06-.97-.16l-.08-.03c-1.55-.59-2.33-2.33-1.75-3.87.44-1.16,1.56-1.94,2.81-1.94m0-1c-1.61,0-3.14.98-3.74,2.59-.78,2.07.26,4.37,2.33,5.16h0c.47.17.95.26,1.42.26,1.61,0,3.13-.99,3.74-2.59.78-2.07-.26-4.38-2.32-5.16h0c-.46-.18-.94-.26-1.41-.26h0Z"/>
  <g>
    <path class="uuid-aca8bbc4-c7c8-4a14-9aa5-86ab1ed166cb" d="m45.24,53.31c-1.15,0-2.22-.56-2.88-1.5-1.1-1.58-.7-3.77.89-4.88.59-.41,1.27-.62,1.99-.62,1.15,0,2.23.56,2.89,1.51,1.1,1.58.7,3.77-.89,4.87-.59.41-1.28.62-1.99.62Z"/>
    <path class="uuid-aca8bbc4-c7c8-4a14-9aa5-86ab1ed166cb" d="m45.23,46.81h0c.99,0,1.91.48,2.48,1.29.94,1.36.6,3.23-.75,4.18-.51.35-1.1.53-1.71.53-.98,0-1.91-.48-2.47-1.29-.94-1.36-.6-3.23.76-4.18.5-.35,1.09-.53,1.7-.53m0-1c-.78,0-1.58.23-2.27.71-1.81,1.26-2.27,3.75-1.01,5.57.78,1.12,2.03,1.72,3.29,1.72.79,0,1.58-.23,2.28-.71,1.81-1.26,2.27-3.75,1.01-5.57-.78-1.12-2.03-1.72-3.3-1.72h0Z"/>
  </g>
  <path class="uuid-aca8bbc4-c7c8-4a14-9aa5-86ab1ed166cb" d="m21.54,43.96h0c.86,0,1.68.37,2.24,1,1.1,1.24.99,3.14-.24,4.23-.57.49-1.28.76-2,.76-.85,0-1.67-.37-2.24-1-1.1-1.24-.99-3.14.25-4.24.55-.49,1.26-.76,1.99-.76m0-1c-.95,0-1.9.33-2.66,1.01-1.65,1.47-1.8,3.99-.33,5.65.79.88,1.89,1.34,2.99,1.34.94,0,1.89-.34,2.66-1.01,1.65-1.47,1.79-4,.33-5.65-.79-.89-1.89-1.34-2.99-1.34h0Z"/>
  <path class="uuid-aca8bbc4-c7c8-4a14-9aa5-86ab1ed166cb" d="m50.95,40.36c.49,0,.95.12,1.39.34,1.47.77,2.03,2.59,1.26,4.06-.52.99-1.54,1.6-2.67,1.6-.49,0-.96-.12-1.39-.35-.71-.37-1.23-.99-1.47-1.75-.22-.71-.17-1.47.14-2.15l.07-.14c.52-1,1.54-1.61,2.66-1.61m0-1c-1.44,0-2.83.78-3.55,2.15h0c-1.03,1.95-.28,4.37,1.68,5.39.59.32,1.23.46,1.85.46,1.44,0,2.83-.77,3.55-2.13,1.03-1.96.27-4.38-1.68-5.41-.59-.31-1.23-.46-1.85-.46h0Z"/>
  <path class="uuid-aca8bbc4-c7c8-4a14-9aa5-86ab1ed166cb" d="m17.53,36.34h0c1.38,0,2.58.94,2.91,2.28.4,1.6-.59,3.24-2.19,3.64-.22.05-.45.08-.72.08-1.38,0-2.58-.94-2.91-2.28-.4-1.6.59-3.23,2.19-3.63.24-.06.48-.09.72-.09m0-1c-.32,0-.64.04-.96.12-2.14.53-3.45,2.7-2.92,4.84.45,1.82,2.08,3.04,3.88,3.04.32,0,.64-.03.96-.11,2.15-.54,3.45-2.71,2.92-4.85-.45-1.82-2.09-3.04-3.88-3.04h0Z"/>
  <path class="uuid-aca8bbc4-c7c8-4a14-9aa5-86ab1ed166cb" d="m53,30.93v1c1.65,0,2.99,1.34,2.99,2.98v.09c0,1.65-1.35,3-3,3s-2.96-1.31-2.99-2.93v-.09s0-.04,0-.04c0-1.65,1.34-3.01,3-3.01v-1m.01,0s-.01,0-.02,0c-2.21,0-4,1.8-3.99,4.02,0,.05,0,.09,0,.14.04,2.17,1.81,3.91,3.99,3.91s4-1.79,4-4v-.09c0-2.2-1.79-3.98-3.99-3.98h0Z"/>
  <path class="uuid-aca8bbc4-c7c8-4a14-9aa5-86ab1ed166cb" d="m17.5,27.73h0c.24,0,.48.03.72.09.78.19,1.44.67,1.85,1.35.42.68.54,1.49.35,2.27-.32,1.34-1.52,2.28-2.91,2.28-.23,0-.47-.03-.71-.08-1.61-.4-2.6-2.03-2.21-3.63.33-1.34,1.52-2.28,2.9-2.28m0-1c-1.8,0-3.43,1.23-3.87,3.05-.52,2.15.79,4.31,2.94,4.84.32.07.63.11.95.11,1.8,0,3.44-1.22,3.88-3.05.52-2.15-.79-4.31-2.94-4.83-.32-.08-.64-.12-.96-.12h0Z"/>
  <path class="uuid-aca8bbc4-c7c8-4a14-9aa5-86ab1ed166cb" d="m50.9,23.57h0c1.12,0,2.14.61,2.66,1.59.37.71.45,1.52.22,2.29-.24.77-.75,1.4-1.46,1.77-.44.23-.91.35-1.4.35-1.12,0-2.13-.61-2.66-1.6-.77-1.46-.21-3.28,1.24-4.06.44-.23.91-.35,1.4-.35m0-1c-.63,0-1.27.15-1.87.46-1.95,1.04-2.69,3.46-1.66,5.41.72,1.36,2.11,2.13,3.54,2.13.63,0,1.27-.15,1.87-.47,1.95-1.03,2.69-3.46,1.66-5.41-.72-1.35-2.11-2.12-3.54-2.12h0Z"/>
  <path class="uuid-aca8bbc4-c7c8-4a14-9aa5-86ab1ed166cb" d="m21.49,20.09h0c.73,0,1.44.27,1.99.75.6.53.96,1.26,1.01,2.06.05.8-.21,1.57-.75,2.17-.57.65-1.39,1.02-2.25,1.02-.74,0-1.43-.26-1.99-.75-1.24-1.1-1.35-3-.26-4.24.57-.64,1.38-1.01,2.25-1.01m0-1c-1.11,0-2.21.46-3,1.35-1.46,1.66-1.3,4.19.35,5.65.77.67,1.71,1,2.65,1,1.11,0,2.21-.46,3-1.36,1.46-1.65,1.31-4.18-.35-5.64-.76-.67-1.71-1-2.65-1h0Z"/>
  <path class="uuid-aca8bbc4-c7c8-4a14-9aa5-86ab1ed166cb" d="m45.18,17.15h0c.6,0,1.19.18,1.69.52l.12.08c1.27.96,1.57,2.77.66,4.1-.56.81-1.49,1.3-2.48,1.3-.62,0-1.2-.18-1.69-.52-1.37-.94-1.72-2.81-.78-4.17.56-.82,1.49-1.31,2.48-1.31m0-1c-1.28,0-2.53.61-3.31,1.74-1.25,1.82-.78,4.31,1.04,5.56.69.48,1.48.7,2.26.7,1.27,0,2.52-.6,3.3-1.73,1.25-1.83.79-4.32-1.03-5.57h-.01c-.69-.47-1.47-.7-2.25-.7h0Z"/>
  <path class="uuid-aca8bbc4-c7c8-4a14-9aa5-86ab1ed166cb" d="m28.57,15.18c1.25,0,2.35.76,2.8,1.93.29.75.26,1.56-.06,2.29-.33.73-.92,1.29-1.67,1.58-.35.14-.71.2-1.06.2-1.24,0-2.36-.78-2.81-1.94-.29-.75-.26-1.56.06-2.29.33-.73.92-1.29,1.67-1.58l.13-.05c.31-.1.62-.15.94-.15m0-1c-.48,0-.96.09-1.43.27h0c-2.07.79-3.1,3.1-2.31,5.16.61,1.6,2.13,2.58,3.74,2.58.47,0,.95-.09,1.42-.27,2.07-.79,3.1-3.1,2.31-5.16-.61-1.6-2.12-2.58-3.74-2.58h0Z"/>
  <path class="uuid-aca8bbc4-c7c8-4a14-9aa5-86ab1ed166cb" d="m37.1,14.12h0c.12,0,.23,0,.35.02,1.65.2,2.83,1.69,2.63,3.34-.17,1.51-1.45,2.65-2.98,2.65-.11,0-.23,0-.35-.02-.79-.09-1.5-.49-2-1.12-.5-.63-.72-1.41-.62-2.21.17-1.51,1.45-2.65,2.97-2.65m0-1c-2,0-3.73,1.51-3.96,3.54-.26,2.19,1.31,4.18,3.5,4.44.16.02.32.03.47.03,2.01,0,3.74-1.5,3.97-3.54.26-2.2-1.31-4.18-3.51-4.44-.16-.02-.32-.03-.47-.03h0Z"/>
</svg>
