<?xml version="1.0" encoding="UTF-8" standalone="no"?>
<svg xmlns="http://www.w3.org/2000/svg" height="70" id="uuid-a188c3c2-a562-4d45-842d-bf390d979dab" viewBox="0 0 69.99 69.99" width="70">
  <defs>
    <style>.uuid-7f5a77b8-546e-4fa4-8d72-64b6c7765ca8{fill:#ff6e00;}</style>
  </defs>
  <path class="uuid-7f5a77b8-546e-4fa4-8d72-64b6c7765ca8" d="m35,1C16.22,1,1,16.22,1,35s15.22,34,34,34,34-15.22,34-34S53.78,1,35,1Zm0,65c-17.12,0-31-13.88-31-31S17.88,4,35,4s31,13.88,31,31-13.88,31-31,31Z"/>
  <g>
    <path class="uuid-7f5a77b8-546e-4fa4-8d72-64b6c7765ca8" d="m34.56,31.44c.2,0,.4.02.56.05.25.06.44.11.59.18.16.07.33.16.51.27.18.12.33.24.46.38.13.13.26.29.35.44v.02s.03.02.03.02c.1.14.18.29.26.49.08.19.14.38.17.55.04.21.06.42.06.6s-.02.37-.06.58c-.03.17-.09.36-.17.56-.08.19-.17.36-.29.54-.09.14-.2.28-.35.43-.57.56-1.34.88-2.13.88-.19,0-.39-.02-.59-.06-.18-.04-.36-.09-.56-.17-.19-.08-.36-.17-.54-.29-.15-.1-.31-.22-.42-.33-.16-.17-.29-.33-.38-.46-.13-.21-.23-.38-.29-.53-.07-.18-.13-.37-.17-.6-.04-.16-.05-.34-.05-.56s.02-.41.06-.59c.04-.2.1-.39.17-.56.07-.16.16-.33.27-.5.14-.21.25-.34.36-.45l.02-.02.02-.02c.11-.11.24-.22.44-.36.16-.11.34-.2.52-.28.15-.06.34-.12.56-.17.19-.04.39-.06.59-.06m0-1c-.26,0-.52.02-.78.07-.26.06-.51.13-.75.23-.24.1-.48.23-.69.37-.22.15-.43.31-.61.5-.19.18-.35.39-.5.61-.14.21-.27.44-.37.69-.1.24-.17.49-.22.74-.06.26-.08.53-.08.79s.02.52.08.78c.05.25.12.5.22.75.1.24.23.47.37.69.15.22.32.42.5.61.18.18.39.35.61.49.22.15.45.27.69.37.24.1.49.18.75.23.25.05.52.08.78.08,1.05,0,2.08-.43,2.83-1.17.18-.19.35-.39.49-.61.15-.22.27-.45.37-.69.1-.25.18-.5.23-.75.05-.26.08-.52.08-.78s-.03-.53-.08-.79c-.05-.25-.13-.5-.23-.74-.1-.25-.22-.48-.37-.69-.14-.22-.31-.43-.49-.61-.19-.19-.39-.35-.61-.5-.22-.14-.45-.27-.69-.37-.24-.1-.49-.17-.75-.23-.26-.05-.52-.07-.78-.07h0Z"/>
    <path class="uuid-7f5a77b8-546e-4fa4-8d72-64b6c7765ca8" d="m39.77,22.91h0c.55,0,1.09.15,1.56.44,1.41.86,1.86,2.71,1,4.12-.56.9-1.52,1.44-2.57,1.44-.56,0-1.1-.15-1.56-.43-.68-.42-1.16-1.07-1.35-1.85-.19-.78-.06-1.59.36-2.27.55-.9,1.5-1.44,2.56-1.44m0-1c-1.35,0-2.66.68-3.41,1.92-1.15,1.88-.56,4.35,1.33,5.5.65.4,1.37.58,2.08.58,1.35,0,2.66-.68,3.42-1.91,1.15-1.89.55-4.35-1.33-5.5-.65-.4-1.37-.59-2.09-.59h0Z"/>
    <path class="uuid-7f5a77b8-546e-4fa4-8d72-64b6c7765ca8" d="m44.99,15.38c.2,0,.4.02.59.06.18.04.38.1.56.17.19.08.36.17.54.29.14.09.28.2.43.35.56.57.88,1.34.88,2.13s-.32,1.56-.89,2.12c-.56.56-1.33.88-2.11.88-.22,0-.4-.02-.59-.06-.21-.04-.39-.09-.55-.16-.18-.07-.36-.17-.51-.27-.21-.14-.34-.25-.47-.38-.56-.56-.88-1.33-.88-2.12s.32-1.57.88-2.12c.13-.13.29-.26.44-.35h.02s.02-.03.02-.03c.13-.09.29-.17.49-.26.2-.08.38-.14.56-.17.19-.04.39-.06.58-.06m0-1c-.26,0-.52.03-.78.08-.26.05-.51.13-.75.23-.24.1-.48.22-.69.37-.22.14-.43.31-.61.49-.75.75-1.17,1.78-1.17,2.83s.43,2.09,1.17,2.83c.18.19.39.35.61.5.21.14.45.27.69.37.24.1.49.17.75.22.25.06.52.08.78.08,1.05,0,2.08-.43,2.82-1.17.75-.74,1.18-1.77,1.18-2.83s-.43-2.08-1.17-2.83c-.19-.18-.39-.35-.61-.49-.22-.15-.45-.27-.69-.37-.24-.1-.5-.18-.75-.23-.26-.05-.52-.08-.78-.08h0Z"/>
    <path class="uuid-7f5a77b8-546e-4fa4-8d72-64b6c7765ca8" d="m39.77,22.91h0c.55,0,1.09.15,1.56.44,1.41.86,1.86,2.71,1,4.12-.56.9-1.52,1.44-2.57,1.44-.56,0-1.1-.15-1.56-.43-.68-.42-1.16-1.07-1.35-1.85-.19-.78-.06-1.59.36-2.27.55-.9,1.5-1.44,2.56-1.44m0-1c-1.35,0-2.66.68-3.41,1.92-1.15,1.88-.56,4.35,1.33,5.5.65.4,1.37.58,2.08.58,1.35,0,2.66-.68,3.42-1.91,1.15-1.89.55-4.35-1.33-5.5-.65-.4-1.37-.59-2.09-.59h0Z"/>
    <path class="uuid-7f5a77b8-546e-4fa4-8d72-64b6c7765ca8" d="m34.56,31.44c.2,0,.4.02.56.05.25.06.44.11.59.18.16.07.33.16.51.27.18.12.33.24.46.38.13.13.26.29.35.44v.02s.03.02.03.02c.1.14.18.29.26.49.08.19.14.38.17.55.04.21.06.42.06.6s-.02.37-.06.58c-.03.17-.09.36-.17.56-.08.19-.17.36-.29.54-.09.14-.2.28-.35.43-.57.56-1.34.88-2.13.88-.19,0-.39-.02-.59-.06-.18-.04-.36-.09-.56-.17-.19-.08-.36-.17-.54-.29-.15-.1-.31-.22-.42-.33-.16-.17-.29-.33-.38-.46-.13-.21-.23-.38-.29-.53-.07-.18-.13-.37-.17-.6-.04-.16-.05-.34-.05-.56s.02-.41.06-.59c.04-.2.1-.39.17-.56.07-.16.16-.33.27-.5.14-.21.25-.34.36-.45l.02-.02.02-.02c.11-.11.24-.22.44-.36.16-.11.34-.2.52-.28.15-.06.34-.12.56-.17.19-.04.39-.06.59-.06m0-1c-.26,0-.52.02-.78.07-.26.06-.51.13-.75.23-.24.1-.48.23-.69.37-.22.15-.43.31-.61.5-.19.18-.35.39-.5.61-.14.21-.27.44-.37.69-.1.24-.17.49-.22.74-.06.26-.08.53-.08.79s.02.52.08.78c.05.25.12.5.22.75.1.24.23.47.37.69.15.22.32.42.5.61.18.18.39.35.61.49.22.15.45.27.69.37.24.1.49.18.75.23.25.05.52.08.78.08,1.05,0,2.08-.43,2.83-1.17.18-.19.35-.39.49-.61.15-.22.27-.45.37-.69.1-.25.18-.5.23-.75.05-.26.08-.52.08-.78s-.03-.53-.08-.79c-.05-.25-.13-.5-.23-.74-.1-.25-.22-.48-.37-.69-.14-.22-.31-.43-.49-.61-.19-.19-.39-.35-.61-.5-.22-.14-.45-.27-.69-.37-.24-.1-.49-.17-.75-.23-.26-.05-.52-.07-.78-.07h0Z"/>
    <path class="uuid-7f5a77b8-546e-4fa4-8d72-64b6c7765ca8" d="m44.48,30.2c1.52,0,2.8,1.13,2.98,2.64.1.79-.11,1.57-.6,2.21-.49.63-1.2,1.04-1.99,1.13-.13.02-.26.02-.39.02-1.51,0-2.79-1.13-2.98-2.62-.2-1.64.97-3.15,2.6-3.36.13-.02.25-.02.37-.02m0-1c-.16,0-.33.01-.5.03-2.19.28-3.74,2.28-3.47,4.47.26,2.03,1.98,3.5,3.97,3.5.16,0,.33,0,.5-.03,2.19-.27,3.75-2.27,3.47-4.46-.25-2.03-1.98-3.51-3.98-3.51h0Z"/>
    <path class="uuid-7f5a77b8-546e-4fa4-8d72-64b6c7765ca8" d="m53.42,28.96c.19,0,.39.02.58.06.17.03.36.09.56.18.19.08.36.16.5.26.17.12.33.25.46.38.56.56.88,1.33.88,2.12s-.32,1.57-.88,2.12c-.13.13-.29.26-.46.37-.15.1-.32.19-.52.27-.19.08-.37.14-.54.17-.22.04-.42.06-.6.06-.78,0-1.56-.32-2.12-.88-.55-.55-.88-1.34-.88-2.12s.32-1.56.88-2.12c.55-.55,1.34-.87,2.14-.87m0-1c-1.06,0-2.1.42-2.85,1.17-.74.75-1.17,1.78-1.17,2.83s.43,2.09,1.17,2.83c.75.74,1.78,1.17,2.83,1.17.26,0,.53-.03.79-.08.25-.05.5-.13.74-.23.25-.1.48-.22.69-.36.22-.15.43-.32.61-.5.75-.74,1.17-1.78,1.17-2.83s-.42-2.08-1.17-2.83c-.18-.18-.39-.35-.61-.5-.21-.14-.44-.26-.69-.36-.24-.1-.49-.18-.74-.23-.26-.05-.51-.08-.77-.08h0Z"/>
    <path class="uuid-7f5a77b8-546e-4fa4-8d72-64b6c7765ca8" d="m44.48,30.2c1.51,0,2.8,1.13,2.98,2.64.1.79-.11,1.57-.6,2.21-.49.63-1.2,1.04-1.99,1.13-.13.02-.26.02-.39.02-1.51,0-2.79-1.13-2.98-2.62-.2-1.64.97-3.15,2.6-3.35.13-.02.25-.02.38-.02m0-1c-.16,0-.33.01-.5.03-2.19.28-3.74,2.28-3.47,4.47.25,2.02,1.98,3.5,3.97,3.5.16,0,.33,0,.5-.03,2.19-.27,3.75-2.27,3.47-4.46-.25-2.03-1.98-3.51-3.97-3.51h0Z"/>
    <path class="uuid-7f5a77b8-546e-4fa4-8d72-64b6c7765ca8" d="m34.56,31.44c.2,0,.4.02.56.05.25.06.44.11.59.18.16.07.33.16.51.27.18.12.33.24.46.38.13.13.26.29.35.44v.02s.03.02.03.02c.1.14.18.29.26.49.08.19.14.38.17.55.04.21.06.42.06.6s-.02.37-.06.58c-.03.17-.09.36-.17.56-.08.19-.17.36-.29.54-.09.14-.2.28-.35.43-.57.56-1.34.88-2.13.88-.19,0-.39-.02-.59-.06-.18-.04-.36-.09-.56-.17-.19-.08-.36-.17-.54-.29-.15-.1-.31-.22-.42-.33-.16-.17-.29-.33-.38-.46-.13-.21-.23-.38-.29-.53-.07-.18-.13-.37-.17-.6-.04-.16-.05-.34-.05-.56s.02-.41.06-.59c.04-.2.1-.39.17-.56.07-.16.16-.33.27-.5.14-.21.25-.34.36-.45l.02-.02.02-.02c.11-.11.24-.22.44-.36.16-.11.34-.2.52-.28.15-.06.34-.12.56-.17.19-.04.39-.06.59-.06m0-1c-.26,0-.52.02-.78.07-.26.06-.51.13-.75.23-.24.1-.48.23-.69.37-.22.15-.43.31-.61.5-.19.18-.35.39-.5.61-.14.21-.27.44-.37.69-.1.24-.17.49-.22.74-.06.26-.08.53-.08.79s.02.52.08.78c.05.25.12.5.22.75.1.24.23.47.37.69.15.22.32.42.5.61.18.18.39.35.61.49.22.15.45.27.69.37.24.1.49.18.75.23.25.05.52.08.78.08,1.05,0,2.08-.43,2.83-1.17.18-.19.35-.39.49-.61.15-.22.27-.45.37-.69.1-.25.18-.5.23-.75.05-.26.08-.52.08-.78s-.03-.53-.08-.79c-.05-.25-.13-.5-.23-.74-.1-.25-.22-.48-.37-.69-.14-.22-.31-.43-.49-.61-.19-.19-.39-.35-.61-.5-.22-.14-.45-.27-.69-.37-.24-.1-.49-.17-.75-.23-.26-.05-.52-.07-.78-.07h0Z"/>
    <path class="uuid-7f5a77b8-546e-4fa4-8d72-64b6c7765ca8" d="m41.72,38.42h0c.79,0,1.53.3,2.09.86,1.18,1.15,1.21,3.05.05,4.24-.56.58-1.32.9-2.14.9s-1.54-.3-2.1-.86c-1.18-1.15-1.21-3.05-.05-4.24.57-.59,1.34-.91,2.15-.91m0-1c-1.04,0-2.08.41-2.87,1.21-1.54,1.58-1.51,4.11.07,5.65.78.76,1.79,1.14,2.8,1.14s2.08-.4,2.86-1.21c1.54-1.58,1.51-4.11-.07-5.65-.78-.76-1.78-1.14-2.79-1.14h0Z"/>
    <path class="uuid-7f5a77b8-546e-4fa4-8d72-64b6c7765ca8" d="m48.87,44.41c.8,0,1.57.32,2.12.88.56.56.89,1.34.89,2.12s-.32,1.56-.89,2.12c-.56.56-1.33.88-2.11.88s-1.57-.32-2.12-.88c-.56-.56-.89-1.34-.89-2.12s.32-1.56.89-2.12c.14-.14.29-.26.45-.37.15-.11.32-.19.5-.27.21-.08.4-.14.58-.18.19-.04.38-.06.58-.06m0-1c-.26,0-.52.03-.78.08-.25.05-.5.13-.75.23-.24.1-.47.22-.69.37-.22.14-.42.31-.6.49-.75.75-1.18,1.78-1.18,2.83s.43,2.08,1.18,2.83,1.77,1.17,2.83,1.17,2.08-.43,2.82-1.17c.75-.74,1.18-1.77,1.18-2.83s-.43-2.08-1.18-2.83c-.74-.75-1.78-1.17-2.83-1.17h0Z"/>
    <path class="uuid-7f5a77b8-546e-4fa4-8d72-64b6c7765ca8" d="m41.72,38.42h0c.79,0,1.53.3,2.09.86,1.18,1.15,1.21,3.05.05,4.24-.56.58-1.32.9-2.14.9s-1.54-.3-2.1-.86c-1.18-1.15-1.21-3.05-.05-4.24.57-.59,1.34-.91,2.15-.91m0-1c-1.04,0-2.08.41-2.87,1.21-1.54,1.58-1.51,4.11.07,5.65.78.76,1.79,1.14,2.8,1.14s2.08-.4,2.86-1.21c1.54-1.58,1.51-4.11-.07-5.65-.78-.76-1.78-1.14-2.79-1.14h0Z"/>
    <path class="uuid-7f5a77b8-546e-4fa4-8d72-64b6c7765ca8" d="m34.56,31.44c.2,0,.4.02.56.05.25.06.44.11.59.18.16.07.33.16.51.27.18.12.33.24.46.38.13.13.26.29.35.44v.02s.03.02.03.02c.1.14.18.29.26.49.08.19.14.38.17.55.04.21.06.42.06.6s-.02.37-.06.58c-.03.17-.09.36-.17.56-.08.19-.17.36-.29.54-.09.14-.2.28-.35.43-.57.56-1.34.88-2.13.88-.19,0-.39-.02-.59-.06-.18-.04-.36-.09-.56-.17-.19-.08-.36-.17-.54-.29-.15-.1-.31-.22-.42-.33-.16-.17-.29-.33-.38-.46-.13-.21-.23-.38-.29-.53-.07-.18-.13-.37-.17-.6-.04-.16-.05-.34-.05-.56s.02-.41.06-.59c.04-.2.1-.39.17-.56.07-.16.16-.33.27-.5.14-.21.25-.34.36-.45l.02-.02.02-.02c.11-.11.24-.22.44-.36.16-.11.34-.2.52-.28.15-.06.34-.12.56-.17.19-.04.39-.06.59-.06m0-1c-.26,0-.52.02-.78.07-.26.06-.51.13-.75.23-.24.1-.48.23-.69.37-.22.15-.43.31-.61.5-.19.18-.35.39-.5.61-.14.21-.27.44-.37.69-.1.24-.17.49-.22.74-.06.26-.08.53-.08.79s.02.52.08.78c.05.25.12.5.22.75.1.24.23.47.37.69.15.22.32.42.5.61.18.18.39.35.61.49.22.15.45.27.69.37.24.1.49.18.75.23.25.05.52.08.78.08,1.05,0,2.08-.43,2.83-1.17.18-.19.35-.39.49-.61.15-.22.27-.45.37-.69.1-.25.18-.5.23-.75.05-.26.08-.52.08-.78s-.03-.53-.08-.79c-.05-.25-.13-.5-.23-.74-.1-.25-.22-.48-.37-.69-.14-.22-.31-.43-.49-.61-.19-.19-.39-.35-.61-.5-.22-.14-.45-.27-.69-.37-.24-.1-.49-.17-.75-.23-.26-.05-.52-.07-.78-.07h0Z"/>
    <path class="uuid-7f5a77b8-546e-4fa4-8d72-64b6c7765ca8" d="m33.56,41.4h0c.1,0,.2,0,.31.02.8.08,1.52.46,2.02,1.08.51.62.74,1.4.66,2.19-.15,1.54-1.43,2.71-2.98,2.71-.11,0-.21,0-.3-.01-1.65-.17-2.85-1.65-2.69-3.29.15-1.54,1.43-2.7,2.98-2.7m0-1c-2.03,0-3.77,1.54-3.97,3.6-.22,2.19,1.39,4.15,3.58,4.38.14,0,.27.02.41.02,2.03,0,3.77-1.54,3.97-3.61.22-2.19-1.38-4.15-3.58-4.37-.14-.01-.27-.02-.41-.02h0Z"/>
    <path class="uuid-7f5a77b8-546e-4fa4-8d72-64b6c7765ca8" d="m32.56,50.35c.8,0,1.57.32,2.13.88.13.13.25.28.35.44v.02s.03.02.03.02c.1.14.18.29.26.49.08.2.14.38.17.56.03.16.05.37.05.58s-.02.41-.05.58c-.04.19-.1.38-.17.57-.06.16-.16.33-.29.54-.09.14-.21.28-.36.44-.15.15-.29.26-.45.37-.16.11-.32.2-.5.27-.21.08-.4.14-.57.18-.22.04-.41.06-.59.06s-.39-.02-.59-.06c-.17-.03-.36-.09-.56-.18-.19-.08-.35-.16-.52-.28-.16-.1-.31-.22-.44-.36s-.26-.28-.36-.44c-.13-.2-.22-.38-.29-.54-.08-.18-.14-.37-.17-.55-.04-.22-.06-.41-.06-.59s.02-.39.06-.59c.03-.18.09-.36.18-.57.06-.16.15-.33.27-.5.14-.21.25-.34.36-.45l.02-.02.02-.02c.1-.11.24-.22.44-.36.18-.12.35-.21.52-.28.16-.07.35-.12.56-.16.19-.04.39-.06.58-.06m0-1c-.26,0-.52.03-.78.08-.25.05-.5.12-.74.22-.25.1-.48.23-.69.37-.22.15-.43.31-.61.5-.19.18-.35.39-.5.61-.14.21-.27.44-.37.69-.1.24-.18.49-.23.75-.05.25-.08.52-.08.78s.03.52.08.78c.05.25.13.51.23.75.1.24.23.47.37.69.15.22.31.42.5.61.18.18.39.35.61.49.21.15.44.27.69.37.24.1.49.18.74.23.26.05.53.08.79.08s.52-.03.78-.08c.25-.05.5-.13.75-.23.24-.1.47-.22.69-.37.22-.14.42-.31.6-.49.19-.19.36-.39.5-.61.14-.22.27-.45.37-.69s.18-.5.23-.75c.05-.26.07-.52.07-.78s-.02-.53-.07-.78c-.05-.26-.13-.51-.23-.75-.1-.25-.22-.48-.37-.69-.14-.22-.31-.43-.49-.61-.75-.75-1.78-1.17-2.84-1.17h0Z"/>
    <path class="uuid-7f5a77b8-546e-4fa4-8d72-64b6c7765ca8" d="m33.56,41.4h0c.1,0,.2,0,.31.02.8.08,1.52.46,2.02,1.08.51.62.74,1.4.66,2.19-.15,1.54-1.43,2.71-2.98,2.71-.11,0-.21,0-.3-.01-1.65-.17-2.85-1.65-2.69-3.29.15-1.54,1.43-2.7,2.98-2.7m0-1c-2.03,0-3.77,1.54-3.97,3.6-.22,2.19,1.39,4.15,3.58,4.38.14,0,.27.02.41.02,2.03,0,3.77-1.54,3.97-3.61.22-2.19-1.38-4.15-3.58-4.37-.14-.01-.27-.02-.41-.02h0Z"/>
    <path class="uuid-7f5a77b8-546e-4fa4-8d72-64b6c7765ca8" d="m34.56,31.44c.2,0,.4.02.56.05.25.06.44.11.59.18.16.07.33.16.51.27.18.12.33.24.46.38.13.13.26.29.35.44v.02s.03.02.03.02c.1.14.18.29.26.49.08.19.14.38.17.55.04.21.06.42.06.6s-.02.37-.06.58c-.03.17-.09.36-.17.56-.08.19-.17.36-.29.54-.09.14-.2.28-.35.43-.57.56-1.34.88-2.13.88-.19,0-.39-.02-.59-.06-.18-.04-.36-.09-.56-.17-.19-.08-.36-.17-.54-.29-.15-.1-.31-.22-.42-.33-.16-.17-.29-.33-.38-.46-.13-.21-.23-.38-.29-.53-.07-.18-.13-.37-.17-.6-.04-.16-.05-.34-.05-.56s.02-.41.06-.59c.04-.2.1-.39.17-.56.07-.16.16-.33.27-.5.14-.21.25-.34.36-.45l.02-.02.02-.02c.11-.11.24-.22.44-.36.16-.11.34-.2.52-.28.15-.06.34-.12.56-.17.19-.04.39-.06.59-.06m0-1c-.26,0-.52.02-.78.07-.26.06-.51.13-.75.23-.24.1-.48.23-.69.37-.22.15-.43.31-.61.5-.19.18-.35.39-.5.61-.14.21-.27.44-.37.69-.1.24-.17.49-.22.74-.06.26-.08.53-.08.79s.02.52.08.78c.05.25.12.5.22.75.1.24.23.47.37.69.15.22.32.42.5.61.18.18.39.35.61.49.22.15.45.27.69.37.24.1.49.18.75.23.25.05.52.08.78.08,1.05,0,2.08-.43,2.83-1.17.18-.19.35-.39.49-.61.15-.22.27-.45.37-.69.1-.25.18-.5.23-.75.05-.26.08-.52.08-.78s-.03-.53-.08-.79c-.05-.25-.13-.5-.23-.74-.1-.25-.22-.48-.37-.69-.14-.22-.31-.43-.49-.61-.19-.19-.39-.35-.61-.5-.22-.14-.45-.27-.69-.37-.24-.1-.49-.17-.75-.23-.26-.05-.52-.07-.78-.07h0Z"/>
    <path class="uuid-7f5a77b8-546e-4fa4-8d72-64b6c7765ca8" d="m26.15,36.87h0c1.03,0,1.97.51,2.53,1.37.9,1.39.49,3.25-.9,4.15-.48.32-1.03.48-1.62.48-1.03,0-1.97-.51-2.52-1.37-.43-.67-.58-1.47-.41-2.25.17-.78.63-1.46,1.31-1.89.48-.31,1.04-.48,1.62-.48m0-1c-.74,0-1.49.21-2.16.64-1.86,1.2-2.39,3.68-1.19,5.53.76,1.19,2.05,1.83,3.36,1.83.75,0,1.5-.2,2.17-.64,1.85-1.2,2.39-3.67,1.19-5.53-.77-1.18-2.06-1.83-3.37-1.83h0Z"/>
    <path class="uuid-7f5a77b8-546e-4fa4-8d72-64b6c7765ca8" d="m18.76,42.29c.19,0,.39.02.59.06.22.04.41.1.56.16.16.06.33.16.51.27.18.12.33.25.47.38.13.13.25.28.35.44v.02s.03.02.03.02c.09.13.18.29.26.49.08.2.14.38.17.56.04.2.06.4.06.58s-.02.37-.06.58c-.03.17-.09.36-.17.56-.08.19-.17.36-.29.54-.09.14-.21.29-.36.44-.56.56-1.33.88-2.11.88s-1.57-.33-2.12-.88c-.14-.14-.26-.29-.36-.44-.13-.2-.22-.38-.29-.52-.07-.18-.13-.37-.17-.61-.04-.16-.05-.34-.05-.55s.02-.4.06-.59c.04-.21.09-.39.16-.55.07-.17.17-.36.27-.51.14-.2.25-.34.36-.45l.02-.02.02-.02c.1-.11.24-.22.44-.35.16-.11.35-.21.52-.28.17-.07.35-.12.58-.17.18-.04.38-.06.57-.06m0-1c-.26,0-.52.03-.78.08-.26.05-.51.12-.75.22-.24.1-.48.23-.69.37-.22.15-.43.31-.61.5-.19.18-.35.39-.5.61-.14.21-.27.45-.37.69-.1.24-.17.49-.22.75-.06.25-.08.52-.08.78s.02.52.08.78c.05.25.12.5.22.75.1.24.23.47.37.69.15.22.31.42.5.61.74.74,1.78,1.17,2.83,1.17s2.08-.43,2.82-1.17c.19-.19.36-.39.5-.61.15-.22.27-.45.37-.69.1-.25.18-.5.23-.75.05-.26.08-.52.08-.78s-.03-.53-.08-.78c-.05-.26-.13-.51-.23-.75-.1-.24-.22-.48-.37-.69-.14-.22-.31-.43-.49-.61-.19-.19-.39-.35-.61-.5-.22-.14-.45-.27-.69-.37-.24-.1-.5-.17-.75-.22-.26-.06-.52-.08-.78-.08h0Z"/>
    <path class="uuid-7f5a77b8-546e-4fa4-8d72-64b6c7765ca8" d="m26.15,36.87h0c1.03,0,1.97.51,2.53,1.37.9,1.39.49,3.25-.9,4.15-.47.31-1.03.48-1.62.48-1.03,0-1.97-.51-2.52-1.37-.43-.67-.58-1.47-.41-2.25.17-.78.63-1.46,1.31-1.89.48-.31,1.04-.48,1.62-.48m0-1c-.74,0-1.49.21-2.16.64-1.86,1.2-2.39,3.68-1.19,5.53.76,1.19,2.05,1.83,3.36,1.83.74,0,1.5-.2,2.17-.64,1.85-1.2,2.39-3.67,1.19-5.53-.77-1.18-2.06-1.83-3.37-1.83h0Z"/>
    <path class="uuid-7f5a77b8-546e-4fa4-8d72-64b6c7765ca8" d="m34.56,31.44c.2,0,.4.02.56.05.25.06.44.11.59.18.16.07.33.16.51.27.18.12.33.24.46.38.13.13.26.29.35.44v.02s.03.02.03.02c.1.14.18.29.26.49.08.19.14.38.17.55.04.21.06.42.06.6s-.02.37-.06.58c-.03.17-.09.36-.17.56-.08.19-.17.36-.29.54-.09.14-.2.28-.35.43-.57.56-1.34.88-2.13.88-.19,0-.39-.02-.59-.06-.18-.04-.36-.09-.56-.17-.19-.08-.36-.17-.54-.29-.15-.1-.31-.22-.42-.33-.16-.17-.29-.33-.38-.46-.13-.21-.23-.38-.29-.53-.07-.18-.13-.37-.17-.6-.04-.16-.05-.34-.05-.56s.02-.41.06-.59c.04-.2.1-.39.17-.56.07-.16.16-.33.27-.5.14-.21.25-.34.36-.45l.02-.02.02-.02c.11-.11.24-.22.44-.36.16-.11.34-.2.52-.28.15-.06.34-.12.56-.17.19-.04.39-.06.59-.06m0-1c-.26,0-.52.02-.78.07-.26.06-.51.13-.75.23-.24.1-.48.23-.69.37-.22.15-.43.31-.61.5-.19.18-.35.39-.5.61-.14.21-.27.44-.37.69-.1.24-.17.49-.22.74-.06.26-.08.53-.08.79s.02.52.08.78c.05.25.12.5.22.75.1.24.23.47.37.69.15.22.32.42.5.61.18.18.39.35.61.49.22.15.45.27.69.37.24.1.49.18.75.23.25.05.52.08.78.08,1.05,0,2.08-.43,2.83-1.17.18-.19.35-.39.49-.61.15-.22.27-.45.37-.69.1-.25.18-.5.23-.75.05-.26.08-.52.08-.78s-.03-.53-.08-.79c-.05-.25-.13-.5-.23-.74-.1-.25-.22-.48-.37-.69-.14-.22-.31-.43-.49-.61-.19-.19-.39-.35-.61-.5-.22-.14-.45-.27-.69-.37-.24-.1-.49-.17-.75-.23-.26-.05-.52-.07-.78-.07h0Z"/>
    <path class="uuid-7f5a77b8-546e-4fa4-8d72-64b6c7765ca8" d="m25.08,28.26h0c.32,0,.64.05.96.16,1.57.52,2.41,2.23,1.89,3.8-.41,1.22-1.55,2.04-2.84,2.04-.32,0-.64-.05-.96-.16-.76-.25-1.37-.79-1.73-1.51-.36-.72-.41-1.53-.15-2.29.41-1.22,1.55-2.04,2.84-2.04m0-1c-1.67,0-3.23,1.05-3.79,2.73-.71,2.09.42,4.36,2.51,5.06.43.14.86.21,1.28.21,1.67,0,3.23-1.05,3.79-2.72.7-2.1-.42-4.37-2.52-5.07-.42-.14-.85-.21-1.27-.21h0Z"/>
    <path class="uuid-7f5a77b8-546e-4fa4-8d72-64b6c7765ca8" d="m16.58,25.07c.8,0,1.58.32,2.14.88.13.13.26.29.37.46.1.15.19.32.27.52.08.19.14.38.17.55.04.22.06.42.06.6s-.02.37-.06.58c-.03.17-.09.36-.17.56-.08.19-.17.37-.26.51-.11.16-.24.31-.38.46-.56.56-1.34.89-2.12.89s-1.56-.32-2.12-.89c-.56-.56-.88-1.33-.88-2.11s.32-1.57.9-2.14c.11-.11.24-.22.42-.35.2-.13.38-.22.54-.29.15-.06.34-.12.56-.17.18-.04.37-.06.56-.06m0-1c-.25,0-.51.02-.76.07-.26.06-.51.13-.75.23-.24.1-.47.23-.69.37-.22.15-.43.31-.61.5-.74.74-1.17,1.77-1.17,2.83s.43,2.08,1.17,2.82c.75.75,1.78,1.18,2.83,1.18s2.08-.43,2.83-1.18c.18-.18.35-.38.5-.6.14-.22.26-.45.36-.69.1-.25.18-.5.23-.75.05-.26.08-.52.08-.78s-.03-.53-.08-.79c-.05-.25-.13-.5-.23-.74-.1-.25-.22-.48-.36-.69-.15-.22-.32-.43-.5-.61-.75-.75-1.79-1.18-2.85-1.18h0Z"/>
    <path class="uuid-7f5a77b8-546e-4fa4-8d72-64b6c7765ca8" d="m25.08,28.26h0c.32,0,.64.05.96.16.76.25,1.37.78,1.73,1.5.36.72.42,1.53.16,2.3-.41,1.22-1.55,2.05-2.84,2.05-.32,0-.64-.05-.96-.16-.76-.25-1.37-.79-1.73-1.51-.36-.72-.41-1.53-.15-2.29.41-1.22,1.55-2.04,2.84-2.04m0-1c-1.67,0-3.23,1.05-3.79,2.73-.71,2.09.42,4.36,2.51,5.06.43.14.86.21,1.28.21,1.67,0,3.23-1.05,3.79-2.73.7-2.09-.42-4.36-2.52-5.06-.42-.14-.85-.21-1.27-.21h0Z"/>
    <g>
      <path class="uuid-7f5a77b8-546e-4fa4-8d72-64b6c7765ca8" d="m34.56,37.95c-.22,0-.45-.02-.68-.07-.21-.04-.43-.11-.66-.2-.22-.09-.42-.2-.6-.32-.2-.13-.38-.27-.54-.43-.15-.16-.31-.34-.44-.54-.12-.18-.23-.39-.32-.6-.08-.2-.14-.42-.19-.65-.05-.21-.07-.43-.07-.68s.02-.48.07-.68c.05-.25.11-.47.19-.66.08-.2.19-.4.32-.6.16-.23.29-.39.43-.52.15-.16.31-.29.55-.45.18-.12.4-.24.6-.32.22-.09.44-.15.67-.21.21-.04.43-.06.66-.06s.46.02.69.07c.21.05.44.11.65.2.19.08.39.19.61.33.2.13.37.27.53.43.16.16.31.34.42.53.13.19.24.38.33.61.09.23.16.45.2.65.05.24.07.48.07.69s-.02.44-.07.69c-.04.2-.11.42-.2.66-.09.21-.2.41-.32.6-.11.18-.25.34-.44.55-.65.64-1.55,1.01-2.47,1.01Z"/>
      <path class="uuid-7f5a77b8-546e-4fa4-8d72-64b6c7765ca8" d="m34.56,31.44c.2,0,.4.02.56.05.25.06.44.11.59.18.16.07.33.16.51.27.18.12.33.24.46.38.13.13.26.29.35.44v.02s.03.02.03.02c.1.14.18.29.26.49.08.19.14.38.17.55.04.21.06.42.06.6s-.02.37-.06.58c-.03.17-.09.36-.17.56-.08.19-.17.36-.29.54-.09.14-.2.28-.35.43-.57.56-1.34.88-2.13.88-.19,0-.39-.02-.59-.06-.18-.04-.36-.09-.56-.17-.19-.08-.36-.17-.54-.29-.15-.1-.31-.22-.42-.33-.16-.17-.29-.33-.38-.46-.13-.21-.23-.38-.29-.53-.07-.18-.13-.37-.17-.6-.04-.16-.05-.34-.05-.56s.02-.41.06-.59c.04-.2.1-.39.17-.56.07-.16.16-.33.27-.5.14-.21.25-.34.36-.45l.02-.02.02-.02c.11-.11.24-.22.44-.36.16-.11.34-.2.52-.28.15-.06.34-.12.56-.17.19-.04.39-.06.59-.06m0-1c-.26,0-.52.02-.78.07-.26.06-.51.13-.75.23-.24.1-.48.23-.69.37-.22.15-.43.31-.61.5-.19.18-.35.39-.5.61-.14.21-.27.44-.37.69-.1.24-.17.49-.22.74-.06.26-.08.53-.08.79s.02.52.08.78c.05.25.12.5.22.75.1.24.23.47.37.69.15.22.32.42.5.61.18.18.39.35.61.49.22.15.45.27.69.37.24.1.49.18.75.23.25.05.52.08.78.08,1.05,0,2.08-.43,2.83-1.17.18-.19.35-.39.49-.61.15-.22.27-.45.37-.69.1-.25.18-.5.23-.75.05-.26.08-.52.08-.78s-.03-.53-.08-.79c-.05-.25-.13-.5-.23-.74-.1-.25-.22-.48-.37-.69-.14-.22-.31-.43-.49-.61-.19-.19-.39-.35-.61-.5-.22-.14-.45-.27-.69-.37-.24-.1-.49-.17-.75-.23-.26-.05-.52-.07-.78-.07h0Z"/>
    </g>
    <path class="uuid-7f5a77b8-546e-4fa4-8d72-64b6c7765ca8" d="m31.13,22.05c1.26,0,2.39.79,2.83,1.97.56,1.56-.24,3.28-1.78,3.85-.35.12-.7.18-1.04.18-1.26,0-2.39-.79-2.82-1.97-.28-.75-.24-1.57.1-2.29.34-.73.94-1.28,1.69-1.55.33-.12.68-.18,1.02-.18m0-1c-.45,0-.91.08-1.36.24-2.08.76-3.15,3.05-2.39,5.13.59,1.62,2.12,2.63,3.76,2.63.45,0,.91-.08,1.37-.24,2.07-.76,3.14-3.05,2.39-5.13-.6-1.62-2.13-2.63-3.77-2.63h0Z"/>
    <path class="uuid-7f5a77b8-546e-4fa4-8d72-64b6c7765ca8" d="m27.72,13.65c.2,0,.4.02.6.06.18.03.36.09.56.17.19.08.36.17.54.29.13.08.27.19.44.35.16.17.27.31.37.47.1.15.19.32.27.51.08.19.14.37.17.55.04.22.06.41.06.59s-.02.39-.06.59c-.03.18-.09.36-.17.55-.09.21-.17.37-.29.54-.1.16-.22.31-.36.44-.56.56-1.33.88-2.12.88-.22,0-.4-.02-.59-.06-.21-.04-.39-.09-.55-.16-.16-.07-.33-.16-.51-.28-.18-.12-.33-.24-.46-.38-.13-.13-.26-.29-.37-.46-.11-.16-.21-.35-.28-.52-.07-.17-.12-.35-.17-.6-.04-.15-.05-.33-.05-.55s.02-.4.06-.59c.04-.21.09-.39.16-.55.07-.16.16-.34.27-.51.13-.18.25-.33.38-.47.13-.13.28-.25.47-.37.15-.1.32-.19.51-.27.19-.08.38-.14.56-.17.19-.04.39-.06.59-.06m0-1c-.26,0-.52.02-.78.07-.26.05-.51.13-.75.23-.24.1-.47.22-.69.37-.22.14-.43.31-.61.49-.19.19-.35.39-.5.61-.14.22-.27.45-.37.69-.1.24-.17.49-.22.75-.06.26-.08.52-.08.78s.02.53.08.78c.05.26.12.51.22.75.1.24.23.48.37.69.15.22.32.43.5.61.19.19.39.35.61.5.22.14.45.27.69.37.24.1.49.17.75.22.25.06.52.08.78.08,1.05,0,2.08-.42,2.83-1.17.18-.18.35-.39.49-.61.15-.21.27-.45.37-.69.1-.24.18-.49.23-.75.05-.25.08-.52.08-.78s-.03-.52-.08-.78c-.05-.26-.13-.51-.23-.75-.1-.24-.22-.47-.37-.69-.14-.22-.31-.42-.49-.61-.19-.18-.39-.35-.61-.49-.22-.15-.45-.27-.69-.37-.24-.1-.49-.18-.75-.23-.26-.05-.52-.07-.78-.07h0Z"/>
    <path class="uuid-7f5a77b8-546e-4fa4-8d72-64b6c7765ca8" d="m31.13,22.05c1.26,0,2.39.79,2.83,1.97.56,1.56-.24,3.28-1.78,3.85-.34.12-.69.18-1.03.18-1.26,0-2.39-.79-2.82-1.97-.28-.75-.24-1.57.1-2.29.34-.73.94-1.28,1.69-1.55.33-.12.68-.18,1.02-.18m0-1c-.45,0-.91.08-1.36.24-2.08.76-3.15,3.05-2.39,5.13.59,1.62,2.13,2.63,3.76,2.63.45,0,.92-.08,1.37-.24,2.07-.76,3.14-3.05,2.39-5.13-.6-1.62-2.13-2.63-3.77-2.63h0Z"/>
  </g>
</svg>
