<?xml version="1.0" encoding="UTF-8" standalone="no"?>
<svg xmlns="http://www.w3.org/2000/svg" height="70" id="uuid-f788bed4-5b73-45e7-8345-e7ffe6d346c7" viewBox="0 0 69.99 69.99" width="70">
  <defs>
    <style>.uuid-a08ac2ae-1d62-46e4-9078-e3d39ab2c69e{fill:#ff6e00;}</style>
  </defs>
  <path class="uuid-a08ac2ae-1d62-46e4-9078-e3d39ab2c69e" d="m35,1C16.22,1,1,16.22,1,35s15.22,34,34,34,34-15.22,34-34S53.78,1,35,1Zm0,65c-17.12,0-31-13.88-31-31S17.88,4,35,4s31,13.88,31,31-13.88,31-31,31Z"/>
  <g>
    <path class="uuid-a08ac2ae-1d62-46e4-9078-e3d39ab2c69e" d="m16.99,31.73c.79,0,1.57.32,2.12.88.16.16.28.3.38.47.1.15.19.32.27.51.08.19.14.37.17.55.04.22.06.41.06.59s-.02.37-.06.59c-.03.18-.09.36-.17.55-.08.19-.17.36-.29.54-.09.14-.21.29-.36.44-.56.56-1.33.88-2.12.88-.18,0-.38-.02-.58-.06-.17-.03-.36-.09-.56-.17-.19-.08-.36-.17-.54-.29-.14-.09-.28-.21-.43-.35-.16-.16-.27-.3-.38-.46-.11-.16-.2-.32-.27-.51-.08-.2-.14-.38-.17-.56-.04-.18-.05-.38-.05-.59s.02-.41.05-.59c.03-.18.09-.36.17-.55.08-.19.17-.36.29-.54.09-.14.21-.28.36-.44.56-.56,1.33-.88,2.11-.88m0-1c-1.05,0-2.08.43-2.82,1.17-.19.19-.36.39-.5.61-.15.22-.27.45-.37.69-.1.24-.18.49-.23.75-.05.26-.07.52-.07.78s.02.52.07.78.13.51.23.75c.1.24.22.47.37.69.14.22.31.42.5.61.18.18.38.35.6.49.22.15.45.27.69.37.25.1.5.18.75.23.26.05.52.08.78.08,1.06,0,2.09-.43,2.83-1.17.19-.19.36-.39.5-.61.15-.22.27-.45.37-.69.1-.24.18-.49.23-.75s.08-.52.08-.78-.03-.52-.08-.78c-.05-.26-.13-.51-.23-.75-.1-.24-.22-.47-.37-.69-.14-.22-.31-.42-.5-.61-.74-.74-1.77-1.17-2.83-1.17h0Z"/>
    <g>
      <circle class="uuid-a08ac2ae-1d62-46e4-9078-e3d39ab2c69e" cx="43.99" cy="34.73" r="3.5"/>
      <path class="uuid-a08ac2ae-1d62-46e4-9078-e3d39ab2c69e" d="m43.99,31.73c1.65,0,3,1.35,3,3s-1.35,3-3,3-3-1.35-3-3,1.35-3,3-3m0-1c-2.21,0-4,1.79-4,4s1.79,4,4,4,4-1.79,4-4-1.79-4-4-4h0Z"/>
    </g>
    <path class="uuid-a08ac2ae-1d62-46e4-9078-e3d39ab2c69e" d="m34.99,31.73c1.65,0,3,1.35,3,3s-1.35,3-3,3-3-1.35-3-3,1.35-3,3-3m0-1c-2.21,0-4,1.79-4,4s1.79,4,4,4,4-1.79,4-4-1.79-4-4-4h0Z"/>
    <path class="uuid-a08ac2ae-1d62-46e4-9078-e3d39ab2c69e" d="m26,31.73c1.65,0,2.99,1.35,2.99,3s-1.34,3-2.99,3-3.01-1.35-3.01-3,1.35-3,3.01-3m0-1c-2.22,0-4.01,1.79-4.01,4s1.79,4,4.01,4,3.99-1.79,3.99-4-1.79-4-3.99-4h0Z"/>
    <path class="uuid-a08ac2ae-1d62-46e4-9078-e3d39ab2c69e" d="m53,31.72c.19,0,.39.02.59.06.17.03.36.09.57.18.17.07.34.15.51.26.18.13.33.26.45.38.16.16.28.3.36.44.13.2.22.38.29.54.07.16.12.34.17.55.04.22.06.41.06.59,0,.79-.32,1.56-.89,2.12-.13.13-.29.26-.46.37-.15.11-.32.19-.52.27-.19.08-.38.14-.55.17-.21.04-.41.06-.59.06-.19,0-.39-.02-.59-.06-.17-.03-.36-.09-.57-.18-.19-.07-.35-.16-.52-.27-.16-.1-.32-.23-.45-.36-.56-.56-.89-1.34-.89-2.12,0-.18.02-.37.06-.59.03-.18.09-.36.17-.55.08-.19.17-.36.29-.54.09-.14.21-.28.36-.44.14-.14.3-.27.43-.36.17-.11.35-.2.53-.28.21-.08.4-.14.58-.18.19-.04.39-.06.58-.06m0-1c-.26,0-.52.03-.79.08-.25.05-.5.13-.75.23-.24.1-.47.22-.69.36-.22.15-.42.32-.6.5-.19.19-.36.39-.5.61-.15.22-.27.45-.37.69-.1.24-.18.49-.23.75-.05.26-.08.52-.08.78,0,1.05.43,2.08,1.18,2.83.18.18.39.35.6.49.22.15.45.27.7.37.24.1.49.18.74.23.26.05.52.08.79.08s.52-.03.78-.08c.25-.05.5-.13.74-.23.25-.1.48-.22.7-.37.21-.14.42-.31.6-.49.75-.75,1.18-1.78,1.18-2.83,0-.26-.03-.52-.08-.78-.06-.26-.13-.51-.23-.75-.1-.24-.23-.47-.37-.69-.14-.22-.31-.42-.5-.61-.18-.18-.39-.35-.6-.5-.22-.14-.45-.26-.7-.36-.24-.1-.49-.18-.74-.23-.26-.05-.52-.08-.79-.08h0Z"/>
  </g>
</svg>
